<svg width="16" height="13" viewBox="0 0 16 13" fill="none" xmlns="http://www.w3.org/2000/svg">
<path d="M3.323 1.20117H12.677C14.3742 1.20117 15.75 2.577 15.75 4.27417V8.95018C15.75 10.6474 14.3742 12.0232 12.677 12.0232H3.323C1.62583 12.0232 0.25 10.6474 0.25 8.95018V4.27417C0.25 2.577 1.62583 1.20117 3.323 1.20117ZM6.16213 9.15202L10.5373 7.06534C10.8562 6.91327 10.8617 6.46119 10.5465 6.30147C10.5465 6.30147 10.5465 6.30146 10.5465 6.30146L6.17132 4.08435C5.88818 3.94085 5.55327 4.1466 5.55327 4.46401V8.76783C5.55327 9.08075 5.8796 9.28677 6.16213 9.15202Z" fill="#F5F5F5" stroke="black" stroke-width="0.5"/>
</svg>
